# xmcd CD database file
#
# Track frame offsets:
#	150
#	25377
#	47262
#
# Disc length: 888 seconds
#
# Revision: 2
# Processed by: cddbd v1.5.2PL0 Copyright (c) Steve Scherf et al.
# Submitted via: CDex 1.51
#
DISCID=19037603
DTITLE=DJ Yves - Bugging
DYEAR=1996
DGENRE=Techno
TTITLE0=Bugging
TTITLE1=Bigging (Jerry Ly mix)
TTITLE2=I Fart
EXTD=YEAR: 1996
EXTT0=
EXTT1=
EXTT2=
PLAYORDER=
